<svg width="51" height="25" viewBox="0 0 51 25" fill="none" xmlns="http://www.w3.org/2000/svg">
<path fill-rule="evenodd" clip-rule="evenodd" d="M22.4824 6.8035C22.4504 6.8035 22.4184 6.8075 22.3864 6.8155C19.4164 7.5465 17.0004 10.7645 17.0004 13.9885C17.0004 18.0445 20.3004 21.3445 24.3574 21.3445C28.0144 21.3445 31.0704 18.7395 31.6244 15.1495C31.6284 15.1195 31.6424 15.0325 31.5604 14.9355C31.4824 14.8445 31.3584 14.7905 31.2284 14.7905C29.8174 14.7905 28.7404 14.8225 27.8994 14.8465C25.8634 14.9075 25.0214 14.9305 24.1894 14.3135C22.9354 13.3845 22.8294 11.7885 22.8294 7.0945C22.8294 7.0105 22.7934 6.9405 22.7214 6.8845C22.6544 6.8315 22.5694 6.8035 22.4824 6.8035ZM24.3574 22.8445C19.4734 22.8445 15.5004 18.8715 15.5004 13.9885C15.5004 10.1165 18.4284 6.2445 22.0274 5.3585C22.5894 5.2215 23.1934 5.3495 23.6474 5.7035C24.0804 6.0435 24.3294 6.5505 24.3294 7.0945C24.3294 11.4795 24.4774 12.6595 25.0824 13.1085C25.4794 13.4015 26.0234 13.3985 27.8564 13.3475C28.7084 13.3225 29.7994 13.2905 31.2284 13.2905C31.7984 13.2905 32.3354 13.5345 32.6994 13.9595C33.0374 14.3545 33.1854 14.8705 33.1074 15.3785C32.4394 19.7035 28.7594 22.8445 24.3574 22.8445Z" fill="#252727"/>
<mask id="mask0_2_105" style="mask-type:luminance" maskUnits="userSpaceOnUse" x="25" y="1" width="12" height="11">
<path fill-rule="evenodd" clip-rule="evenodd" d="M25.9741 1.50049H36.393V11.7898H25.9741V1.50049Z" fill="white"/>
</mask>
<g mask="url(#mask0_2_105)">
<path fill-rule="evenodd" clip-rule="evenodd" d="M27.5108 3.0018C27.4008 5.5208 27.5638 8.7748 27.6398 10.0638C27.6438 10.1408 27.6998 10.1968 27.7758 10.2008C28.8038 10.2598 32.3458 10.4238 34.8928 10.0488C34.8988 8.6448 33.9378 6.7408 32.4908 5.2948C31.0068 3.8128 29.2508 3.0018 27.5328 3.0018H27.5108ZM30.8148 11.7898C29.5048 11.7898 28.3518 11.7368 27.6888 11.6988C26.8548 11.6498 26.1908 10.9848 26.1428 10.1508C26.0648 8.8288 25.8958 5.4698 26.0158 2.8718C26.0488 2.1168 26.6588 1.5158 27.4048 1.5028C29.5418 1.4408 31.7468 2.4328 33.5508 4.2338C35.3088 5.9908 36.4248 8.2998 36.3928 10.1168C36.3808 10.8258 35.8658 11.4178 35.1698 11.5228C33.8118 11.7278 32.2218 11.7898 30.8148 11.7898Z" fill="#252727"/>
</g>
</svg>
