<svg width="51" height="25" viewBox="0 0 51 25" fill="none" xmlns="http://www.w3.org/2000/svg">
<path d="M25.4016 17.6789L23.3568 20.7873C23.1154 21.1519 22.7388 21.4054 22.3104 21.492C22.2086 21.5123 22.1049 21.5226 22.0011 21.5228C21.6987 21.5234 21.403 21.433 21.1526 21.2635C20.7948 21.0244 20.5539 20.6462 20.4883 20.221C20.4204 19.7971 20.5294 19.3641 20.7896 19.0229L23.6024 15.3749H23.6025C23.7324 15.2068 23.9739 15.1758 24.142 15.3058C24.31 15.4355 24.341 15.6771 24.2111 15.8452L21.3983 19.4932C21.2664 19.6672 21.2121 19.8879 21.2486 20.1031C21.2849 20.3183 21.4086 20.5089 21.5904 20.6298C21.7595 20.743 21.9671 20.7831 22.1663 20.7413C22.3934 20.6957 22.5931 20.5617 22.7211 20.3688L24.7583 17.2565C24.8765 17.0833 25.1116 17.037 25.2867 17.1523C25.4617 17.2676 25.5119 17.502 25.3996 17.6789L25.4016 17.6789ZM33.4807 3.91624C32.7646 3.40555 31.7911 3.36712 30.7428 3.8107C29.6617 4.30462 28.7358 5.08397 28.0645 6.06471C27.093 7.42798 26.6379 8.98891 26.8491 10.2407C26.8959 10.5305 26.8701 10.8273 26.7742 11.1047C26.7058 11.3057 26.8132 11.524 27.0142 11.5925C27.2151 11.6608 27.4335 11.5534 27.5019 11.3525C27.6388 10.9547 27.6751 10.5292 27.6076 10.114C27.4328 9.07339 27.8476 7.69287 28.6905 6.51026H28.6904C29.2774 5.64615 30.0884 4.9579 31.0367 4.51928C31.8316 4.18527 32.5382 4.1929 33.0297 4.54419C33.5212 4.89549 33.7612 5.55991 33.7036 6.42L33.7035 6.42013C33.5987 7.45968 33.2131 8.45129 32.588 9.28861C31.7528 10.4732 30.574 11.316 29.5333 11.4889C29.1269 11.5588 28.7434 11.7261 28.4158 11.9766C28.3264 12.0449 28.241 12.1187 28.1604 12.1974C28.0207 12.3473 28.0234 12.5806 28.1666 12.7272C28.3096 12.874 28.5428 12.8825 28.6961 12.7465C28.7568 12.6893 28.8208 12.6362 28.8882 12.5872C29.116 12.4122 29.3828 12.2949 29.6658 12.2454C30.9195 12.036 32.2463 11.0933 33.2198 9.73408V9.73394C33.9275 8.78039 34.3622 7.65201 34.4774 6.46998C34.5465 5.33533 34.1932 4.42717 33.4809 3.91638L33.4807 3.91624ZM25.0999 10.8992C25.0821 10.8677 25.0821 10.829 25.0999 10.7976C25.4402 10.0283 25.3498 9.13645 24.8618 8.45125L21.4325 3.66668C21.3743 3.58123 21.284 3.52297 21.1822 3.50489C21.0804 3.48694 20.9755 3.51078 20.8916 3.57105C20.8076 3.63118 20.7513 3.72279 20.7357 3.82498C20.7201 3.92717 20.7464 4.03136 20.8085 4.114L24.2337 8.89857C24.5644 9.36221 24.6258 9.96585 24.395 10.4864C24.3303 10.6288 24.3051 10.786 24.3224 10.9415C24.3397 11.097 24.3986 11.2448 24.493 11.3696L30.829 19.5643H30.8289C30.9553 19.7227 31.0112 19.926 30.9833 20.1268C30.9555 20.3275 30.8464 20.5079 30.6817 20.626C30.5171 20.744 30.3111 20.7893 30.1121 20.7513C29.9131 20.7131 29.7383 20.595 29.6289 20.4243L23.8806 11.8035C23.7934 11.6727 23.6723 11.568 23.5303 11.5003C23.3884 11.4328 23.2307 11.4048 23.0742 11.4194C22.507 11.4718 21.9544 11.2207 21.6207 10.759L18.2013 5.98609C18.1429 5.90065 18.0528 5.84239 17.9508 5.82431C17.8491 5.80636 17.7443 5.8302 17.6604 5.89033C17.5763 5.9506 17.5201 6.04221 17.5045 6.1444C17.4888 6.24659 17.515 6.35078 17.5772 6.43342L21.0005 11.2163C21.4937 11.9 22.3117 12.2718 23.151 12.1936C23.1872 12.1879 23.2236 12.2017 23.2471 12.23L28.9879 20.8491C29.213 21.1907 29.5683 21.4252 29.9709 21.498C30.0616 21.5146 30.1535 21.5229 30.2455 21.523C30.6226 21.5219 30.9857 21.3796 31.2629 21.1239C31.5402 20.8684 31.7116 20.5181 31.7432 20.1423C31.7749 19.7665 31.6646 19.3926 31.434 19.0941L25.0999 10.8992ZM22.6461 9.86635C22.7895 9.86662 22.9212 9.78693 22.9874 9.6597C23.0536 9.53247 23.0434 9.37885 22.9609 9.26154L19.8314 4.79171C19.71 4.61774 19.4706 4.57515 19.2966 4.69662C19.1228 4.8181 19.0802 5.05741 19.2017 5.23141L22.3313 9.70124H22.3312C22.4028 9.8045 22.5204 9.86611 22.6461 9.86637L22.6461 9.86635Z" fill="#252727" stroke="#252727" stroke-width="0.4"/>
</svg>
