<svg width="23" height="22" viewBox="0 0 23 22" fill="none" xmlns="http://www.w3.org/2000/svg">
<path d="M21.1199 0.631378H22.4352C22.6103 0.631378 22.7516 0.490082 22.7516 0.314972C22.7516 0.139862 22.6103 -0.00143385 22.4352 -0.00143385H21.1199C20.5672 -0.00143385 20.1 0.413076 20.0325 0.962509L19.6637 4.00802H15.6161C15.2992 4.00802 15.0422 4.265 15.0422 4.5821V13.3417L14.8482 13.4351C14.5508 13.1135 14.1457 12.8984 13.6995 12.8403L12.8052 12.7221C11.9468 12.6092 11.0745 12.7495 10.2951 13.1249L10.0662 13.2347C10.1106 13.299 10.1506 13.3666 10.1886 13.4361C10.4334 13.8844 10.5389 14.3883 10.4945 14.8967C10.9458 15.133 11.313 15.4937 11.5576 15.9419C11.7129 16.2262 11.8114 16.534 11.8522 16.8488H11.2129C11.1774 16.643 11.1086 16.4393 11.0029 16.2456C10.8055 15.886 10.5124 15.6138 10.1727 15.443C9.95879 15.3345 9.83524 15.1097 9.86052 14.8725C9.90053 14.4928 9.82988 14.0994 9.63384 13.7398C9.58948 13.6596 9.54109 13.5846 9.48836 13.5141C9.4661 13.4825 9.44199 13.453 9.41654 13.4234C9.39444 13.3959 9.37235 13.3706 9.34807 13.3453C9.34489 13.3412 9.3407 13.337 9.33652 13.3326C9.31224 13.3062 9.2868 13.2809 9.26052 13.2566C9.23423 13.2323 9.20778 13.2082 9.18033 13.185C9.17497 13.1808 9.16877 13.1754 9.16342 13.1712C9.13914 13.1512 9.11369 13.1312 9.08741 13.1123C9.05795 13.09 9.02732 13.0679 8.99567 13.0479C8.96721 13.0289 8.93758 13.011 8.90812 12.9941C8.8733 12.973 8.83847 12.9541 8.80265 12.936C8.59071 12.8296 8.46515 12.6081 8.49043 12.3719C8.54099 11.9068 8.42514 11.4185 8.11392 10.9986C8.06755 10.9353 8.01799 10.8762 7.96525 10.8215C7.88506 10.7371 7.79868 10.6623 7.70694 10.5946C7.64684 10.5503 7.58356 10.5092 7.5181 10.4733C7.5171 10.4733 7.5171 10.4733 7.5171 10.4722C7.419 10.4163 7.31671 10.37 7.21124 10.333C7.16386 10.3161 7.11531 10.3013 7.06677 10.2876C7.05404 10.2844 7.04249 10.2812 7.02994 10.278C7.02575 10.277 7.02039 10.2759 7.01621 10.2749C6.98239 10.2665 6.94657 10.2591 6.91174 10.2528C6.90756 10.2518 6.90237 10.2506 6.89818 10.2498C6.89283 10.2488 6.88663 10.2476 6.88127 10.2466C6.82955 10.2382 6.77681 10.2308 6.72525 10.2265C6.71788 10.2255 6.71169 10.2255 6.70533 10.2243C6.70097 10.2243 6.69578 10.2233 6.6916 10.2233C6.65259 10.2211 6.61359 10.2191 6.57458 10.2191C6.56922 10.2181 6.56504 10.2181 6.55985 10.2181H6.54193C6.50075 10.2181 6.45856 10.2203 6.41637 10.2223C6.4142 10.2223 6.41219 10.2223 6.41001 10.2233C6.38892 10.2243 6.36883 10.2263 6.34774 10.2287C6.32346 10.2308 6.29819 10.2339 6.27391 10.237C6.23373 10.2426 6.19338 10.2501 6.15304 10.2586C6.13831 10.2616 6.12391 10.2653 6.10918 10.2688C6.09562 10.272 6.08172 10.2747 6.06816 10.2782C6.04606 10.2836 6.02279 10.2898 6.0007 10.2971C5.9406 10.315 5.8815 10.3351 5.8224 10.3594C4.72552 10.8087 4.29009 12.0923 4.84153 13.1026C4.8489 13.1173 4.85727 13.1311 4.8658 13.1446C5.06201 13.4833 5.34559 13.7406 5.67156 13.9062C5.88551 14.0138 6.00906 14.2385 5.98361 14.4767C5.9436 14.8554 6.01425 15.2498 6.21046 15.6094C6.40767 15.969 6.70079 16.2412 7.0415 16.412C7.07046 16.4266 7.09708 16.4438 7.12253 16.4624C7.09708 16.4438 7.07046 16.4266 7.0415 16.412C7.0708 16.4267 7.09792 16.4443 7.1237 16.4632C7.12906 16.4673 7.13441 16.4713 7.1396 16.4755C7.18949 16.515 7.23201 16.562 7.26566 16.6146C7.26901 16.6199 7.27253 16.6253 7.27571 16.6308C7.29161 16.6576 7.30601 16.6852 7.31723 16.7145C7.30618 16.6859 7.29211 16.6588 7.27655 16.6323C7.31522 16.6981 7.34133 16.7714 7.35037 16.8486H6.53108C6.16495 16.6164 5.86512 16.2972 5.6555 15.9121C5.41075 15.4638 5.30528 14.9599 5.34964 14.4524C4.89832 14.215 4.53116 13.8545 4.28657 13.4061C4.23601 13.3144 4.19165 13.2196 4.15365 13.1224C3.95426 13.114 3.77296 13.0022 3.67802 12.8207C3.4629 12.4062 3.09692 12.0633 2.60543 11.885C1.77958 11.5855 0.835733 11.8924 0.342061 12.6191C-0.32441 13.6 0.0226427 14.91 1.04132 15.4467C1.4041 15.6387 1.79852 15.703 2.1772 15.6577C2.41459 15.6292 2.64126 15.7486 2.75209 15.9615C2.92821 16.299 3.20462 16.5879 3.56736 16.779C3.61574 16.8041 3.66412 16.8273 3.71368 16.8483L3.06829 16.8489C2.65094 16.8489 2.48771 17.3905 2.83509 17.6214L5.55386 19.4269V20.8949C5.55386 21.1649 5.77317 21.3843 6.04321 21.3843H17.5126H17.5128H17.5131C17.7833 21.3843 18.0025 21.1651 18.0025 20.8949V19.4324H21.8727C22.1898 19.4324 22.4468 19.1756 22.4468 18.8585V4.58194C22.4468 4.26486 22.1898 4.00786 21.8727 4.00786H20.3009L20.6608 1.03816C20.6893 0.806132 20.8865 0.631189 21.1197 0.631189L21.1199 0.631378ZM6.14514 10.2605C6.13677 10.2624 6.12824 10.2645 6.11987 10.2665C6.1284 10.2645 6.13677 10.2624 6.14514 10.2605ZM15.836 5.15538C15.836 4.90895 16.0364 4.70855 16.2827 4.70855H17.4666C17.6414 4.70855 17.783 4.85018 17.783 5.02496C17.783 5.19973 17.6414 5.34136 17.4666 5.34136H16.4688V6.31636C16.4688 6.49114 16.3272 6.63277 16.1524 6.63277C15.9776 6.63277 15.836 6.49114 15.836 6.31636L15.836 5.15538ZM13.2869 16.8489C13.2961 16.791 13.308 16.7338 13.321 16.677C13.308 16.7338 13.2959 16.791 13.2869 16.8489ZM13.3337 16.6268C13.3444 16.5851 13.3562 16.5438 13.3691 16.5029C13.3562 16.5439 13.3444 16.5851 13.3337 16.6268ZM13.3846 16.454C13.403 16.3993 13.4228 16.345 13.4449 16.292C13.4226 16.345 13.403 16.3993 13.3846 16.454ZM13.4454 16.2908C13.4675 16.2379 13.4919 16.1863 13.5177 16.1351C13.4919 16.1862 13.4675 16.2379 13.4454 16.2908ZM13.5417 16.0892C13.5614 16.0517 13.5822 16.0146 13.6039 15.9781C13.5822 16.0146 13.5614 16.0517 13.5417 16.0892ZM13.6306 15.9336C13.6609 15.8848 13.6923 15.8366 13.726 15.7899C13.6923 15.8366 13.661 15.8848 13.6306 15.9336ZM7.9657 17.5685H10.364C10.5388 17.5685 10.6804 17.7101 10.6804 17.8849C10.6804 18.0596 10.5388 18.2013 10.364 18.2013H7.9657C7.79092 18.2013 7.64929 18.0596 7.64929 17.8849C7.64929 17.7101 7.79092 17.5685 7.9657 17.5685ZM7.14036 16.4769C7.18941 16.5158 7.23076 16.5618 7.26391 16.6132C7.23076 16.5618 7.18924 16.5158 7.14036 16.4769ZM5.81997 17.5685H6.59607C6.77085 17.5685 6.91248 17.7101 6.91248 17.8849C6.91248 18.0596 6.77085 18.2013 6.59607 18.2013H5.81997C5.64519 18.2013 5.50356 18.0596 5.50356 17.8849C5.50356 17.7101 5.64519 17.5685 5.81997 17.5685ZM21.1084 7.87504C21.3565 7.87504 21.5577 8.0761 21.5577 8.32435V18.0945C21.5577 18.3426 21.3567 18.5438 21.1084 18.5438H19.2346L20.5342 17.6127C20.6996 17.4941 20.7409 17.3051 20.6907 17.1446C20.6903 17.1436 20.6902 17.1424 20.6898 17.1412C20.687 17.1323 20.6828 17.1238 20.6793 17.1149C20.6749 17.1041 20.6713 17.0928 20.6661 17.0825C20.6649 17.0799 20.6631 17.0776 20.6619 17.0751C20.6246 17.0023 20.5671 16.9395 20.4921 16.8988C20.434 16.8672 20.3656 16.8486 20.2887 16.8486H19.0047C18.8043 15.5768 17.5998 14.5991 16.1443 14.5991C15.8691 14.5991 15.6032 14.6339 15.3511 14.6994C14.6746 14.8741 14.1004 15.2672 13.7252 15.7896C13.6914 15.8368 13.6597 15.8852 13.6291 15.9342C13.6206 15.9479 13.6125 15.962 13.6042 15.9757C13.5814 16.0139 13.5596 16.0527 13.539 16.0919C13.532 16.1053 13.5248 16.1189 13.5179 16.1324C13.465 16.2372 13.4197 16.3459 13.3822 16.4575C13.378 16.4703 13.3741 16.4828 13.3701 16.4955C13.3554 16.5414 13.3423 16.5878 13.3306 16.6347C13.3274 16.647 13.3241 16.6593 13.3212 16.6717C13.3075 16.7299 13.2951 16.7888 13.2857 16.8486H12.6455C12.8041 15.5741 13.761 14.5216 15.041 14.13C15.1072 14.1098 15.1743 14.0918 15.2419 14.0753C15.2522 14.0728 15.2622 14.0704 15.2722 14.0681C15.4845 14.0182 15.7042 13.986 15.9295 13.9733V13.9728C15.9466 13.9718 15.9637 13.9703 15.9807 13.9695L17.7188 13.1331C17.7811 13.1024 17.8549 13.1245 17.8949 13.1816C18.1249 13.5096 18.5952 13.6035 18.9444 13.3366C19.1722 13.1615 19.2744 12.8557 19.2017 12.5783C19.1394 12.3452 18.9822 12.1785 18.7892 12.0941C18.7217 12.0657 18.6869 11.994 18.7058 11.9232C18.749 11.7608 18.7385 11.5847 18.6605 11.4222C18.4864 11.0626 18.0581 10.9086 17.6975 11.0741C17.4677 11.1786 17.3274 11.4062 17.2904 11.6552C17.2639 11.8281 17.2934 11.9621 17.3495 12.0717C17.3853 12.1414 17.3568 12.2257 17.2862 12.2596L15.9293 12.913V8.32382C15.9293 8.07555 16.1304 7.8745 16.3786 7.8745L21.1084 7.87504Z" fill="#252727"/>
</svg>
