<svg width="40" height="40" viewBox="0 0 40 40" fill="none" xmlns="http://www.w3.org/2000/svg">
<path fill-rule="evenodd" clip-rule="evenodd" d="M24.5665 29.7636C24.4769 29.7636 24.3825 29.7562 24.2892 29.7509C24.4636 29.0714 24.5665 28.3636 24.5665 27.6303C24.5665 24.7766 23.1292 22.169 20.8658 20.6081C21.2888 20.2 21.7767 19.8692 22.3069 19.6192C22.6002 19.9505 23.0236 20.1636 23.4999 20.1636H25.6332C26.1133 20.1636 26.5394 19.9471 26.8332 19.6112C28.6834 20.4857 29.8999 22.3712 29.8999 24.4304C29.8999 27.3712 27.5073 29.7636 24.5665 29.7636V29.7636ZM10.7002 27.6303C10.7002 25.5712 11.9167 23.6857 13.7667 22.8111C14.0607 23.1471 14.4868 23.3636 14.9667 23.3636H16.1125C16.0654 23.7241 16.0334 24.0821 16.0334 24.4303C16.0334 27.2384 17.4399 29.8725 19.7406 31.4566C18.7801 32.3872 17.4734 32.9638 16.0334 32.9638C13.0926 32.9638 10.7002 30.5714 10.7002 27.6305L10.7002 27.6303ZM14.4334 19.6303C14.4334 19.3359 14.6725 19.0971 14.9667 19.0971H17.1002C17.3946 19.0971 17.6334 19.3359 17.6334 19.6303V21.7636C17.6334 21.8319 17.618 21.8959 17.5946 21.9555C17.585 21.9801 17.5694 22.0004 17.5566 22.0227C17.5379 22.0553 17.5187 22.0879 17.4941 22.1156C17.4787 22.1332 17.4607 22.1482 17.443 22.1636C17.4115 22.1908 17.377 22.2143 17.3397 22.2335C17.322 22.2426 17.3055 22.2522 17.2872 22.2591C17.2287 22.2814 17.1662 22.2971 17.1002 22.2971H14.9667C14.6725 22.2971 14.4334 22.058 14.4334 21.7636L14.4334 19.6303ZM21.2723 28.6115C20.0002 27.6061 19.2332 26.0617 19.2332 24.4302C19.2332 24.1001 19.2678 23.7726 19.3287 23.4499C20.5874 24.4463 21.3665 25.9827 21.3665 27.6302C21.3665 27.9657 21.3319 28.2925 21.2723 28.6115H21.2723ZM22.9665 16.4303C22.9665 16.1359 23.2055 15.8971 23.4999 15.8971H25.6332C25.9276 15.8971 26.1665 16.1359 26.1665 16.4303V18.5636C26.1665 18.858 25.9276 19.0971 25.6332 19.0971H23.4999C23.2055 19.0971 22.9665 18.858 22.9665 18.5636V16.4303ZM27.2236 16.3355C27.1848 15.683 26.7569 15.139 26.1665 14.9285V4.69712C26.1665 4.40202 25.9281 4.16364 25.6332 4.16364H23.4999C23.2048 4.16364 22.9665 4.40203 22.9665 4.69712V14.9285C22.3761 15.139 21.9484 15.683 21.9095 16.3355C20.5506 16.7828 19.3154 17.5748 18.3334 18.6239C18.1506 18.4 17.9111 18.2277 17.6332 18.1285V4.69712C17.6332 4.40202 17.3948 4.16364 17.0999 4.16364H14.9665C14.6716 4.16364 14.4332 4.40203 14.4332 4.69712V18.1285C13.8428 18.339 13.4151 18.883 13.3761 19.5355C9.8988 20.6761 7.50006 23.9451 7.50006 27.6303C7.50006 32.3355 11.3282 36.1635 16.0332 36.1635C18.8059 36.1635 21.2669 34.828 22.8269 32.7726C23.4146 32.8969 23.9981 32.9634 24.5666 32.9634C29.2718 32.9634 33.1003 29.1353 33.1003 24.4303C33.1003 20.745 30.7015 17.476 27.2238 16.3354L27.2236 16.3355Z" fill="#262049" fill-opacity="0.3"/>
</svg>
