<svg width="15" height="21" viewBox="0 0 15 21" fill="none" xmlns="http://www.w3.org/2000/svg">
<path d="M7.30392 1.36818C7.4787 1.36818 7.62033 1.22655 7.62033 1.05178V0.313476C7.62033 0.1387 7.4787 -0.00292969 7.30392 -0.00292969C7.12915 -0.00292969 6.98752 0.1387 6.98752 0.313476V1.05178C6.98752 1.22655 7.12898 1.36818 7.30392 1.36818Z" fill="#252727"/>
<path d="M7.30392 3.16115C7.4787 3.16115 7.62033 3.01952 7.62033 2.84474V2.10644C7.62033 1.93167 7.4787 1.79004 7.30392 1.79004C7.12915 1.79004 6.98752 1.93167 6.98752 2.10644V2.84474C6.98752 3.01952 7.12898 3.16115 7.30392 3.16115Z" fill="#252727"/>
<path d="M2.69207 3.03194C2.75384 3.09371 2.83487 3.12468 2.91573 3.12468C2.99659 3.12468 3.07761 3.09371 3.13939 3.03194C3.26294 2.90839 3.26294 2.708 3.13939 2.58446L2.61739 2.06246C2.49384 1.93892 2.29328 1.93892 2.16992 2.06246C2.0462 2.18601 2.0462 2.3864 2.16992 2.50994L2.69207 3.03194Z" fill="#252727"/>
<path d="M3.95978 4.29986C4.02139 4.36147 4.10241 4.39244 4.18344 4.39244C4.26447 4.39244 4.34533 4.36147 4.40711 4.29969C4.53066 4.17615 4.53066 3.97592 4.40711 3.85222L3.88493 3.33005C3.76122 3.2065 3.56083 3.2065 3.43746 3.33022C3.31392 3.45377 3.31392 3.65399 3.43746 3.77769L3.95978 4.29986Z" fill="#252727"/>
<path d="M2.10921 7.46958H2.84751C3.02229 7.46958 3.16392 7.32795 3.16392 7.15317C3.16392 6.9784 3.02229 6.83677 2.84751 6.83677H2.10921C1.93444 6.83677 1.79281 6.9784 1.79281 7.15317C1.79281 7.32795 1.93444 7.46958 2.10921 7.46958Z" fill="#252727"/>
<path d="M0.316497 7.46958H1.0548C1.22957 7.46958 1.3712 7.32795 1.3712 7.15317C1.3712 6.9784 1.22957 6.83677 1.0548 6.83677H0.316497C0.141721 6.83677 9.15527e-05 6.9784 9.15527e-05 7.15317C9.15527e-05 7.32795 0.141721 7.46958 0.316497 7.46958Z" fill="#252727"/>
<path d="M10.3811 4.49702C10.4621 4.49702 10.543 4.46621 10.6047 4.40444L11.1267 3.88227C11.2505 3.75872 11.2505 3.55833 11.1267 3.43479C11.0032 3.31125 10.803 3.31125 10.6793 3.43479L10.1571 3.95679C10.0335 4.08051 10.0335 4.28073 10.1571 4.40427C10.2192 4.46604 10.3001 4.49701 10.3811 4.49701L10.3811 4.49702Z" fill="#252727"/>
<path d="M11.6488 3.22929C11.7298 3.22929 11.8107 3.19832 11.8724 3.13671L12.3944 2.61454C12.5182 2.49099 12.5182 2.2906 12.3944 2.16707C12.2709 2.04335 12.0707 2.04352 11.947 2.1669L11.4251 2.68907C11.3016 2.81262 11.3016 3.01301 11.4251 3.13655C11.4869 3.19832 11.5678 3.22929 11.6488 3.22929L11.6488 3.22929Z" fill="#252727"/>
<path d="M11.6124 7.61744H12.3507C12.5254 7.61744 12.6671 7.47581 12.6671 7.30103C12.6671 7.12626 12.5254 6.98463 12.3507 6.98463H11.6124C11.4376 6.98463 11.296 7.12626 11.296 7.30103C11.296 7.47581 11.4377 7.61744 11.6124 7.61744Z" fill="#252727"/>
<path d="M13.4051 7.61744H14.1434C14.3181 7.61744 14.4598 7.47581 14.4598 7.30103C14.4598 7.12626 14.3181 6.98463 14.1434 6.98463H13.4051C13.2303 6.98463 13.0887 7.12626 13.0887 7.30103C13.0887 7.47581 13.2305 7.61744 13.4051 7.61744Z" fill="#252727"/>
<path d="M4.97678 7.36801C4.98298 7.42526 4.99118 7.48202 5.00173 7.53793C5.00273 7.54379 5.00323 7.54982 5.00424 7.55584C5.0044 7.55517 5.00457 7.55451 5.00474 7.55367C5.1539 8.32493 5.69212 8.95741 6.40882 9.23581C6.66312 9.33492 6.93935 9.38866 7.22945 9.38866C7.52175 9.38866 7.80117 9.33375 8.05745 9.23263C8.77094 8.95306 9.30682 8.32123 9.45481 7.55083C9.45514 7.55217 9.45548 7.55334 9.45581 7.55468C9.45799 7.54363 9.45883 7.53208 9.46067 7.52086C9.46804 7.48002 9.47373 7.43866 9.47892 7.39698C9.48226 7.3702 9.48578 7.34374 9.48829 7.31679C9.49231 7.27025 9.49398 7.22304 9.49516 7.17566C9.49566 7.15742 9.49783 7.13967 9.49783 7.12126C9.49783 7.05697 9.49482 6.99252 9.48963 6.92923C9.48896 6.9207 9.48712 6.91266 9.48628 6.90446C9.48394 6.87935 9.47975 6.85507 9.47641 6.83029C9.47004 6.78108 9.46335 6.73202 9.45397 6.68381C9.44878 6.65786 9.44209 6.63275 9.43623 6.6073C9.42551 6.56143 9.41463 6.51573 9.40124 6.47103C9.3932 6.44474 9.38416 6.41913 9.37529 6.39318C9.36089 6.35066 9.34616 6.30847 9.32909 6.26712C9.31837 6.24067 9.30649 6.21489 9.29477 6.18894C9.27702 6.14977 9.25877 6.11093 9.23902 6.07293C9.22529 6.04664 9.21072 6.02103 9.19599 5.99542C9.1754 5.95942 9.15414 5.9241 9.13171 5.88961C9.11497 5.86383 9.09756 5.83855 9.07964 5.81344C9.05654 5.78096 9.03294 5.74915 9.00833 5.71785C8.98857 5.69307 8.96865 5.66846 8.94789 5.64452C8.92261 5.61523 8.89666 5.58676 8.86988 5.55864C8.84744 5.53504 8.82467 5.51176 8.80107 5.48917C8.77395 5.46288 8.74582 5.43777 8.71753 5.41316C8.69225 5.39123 8.66714 5.3693 8.64086 5.34854C8.61189 5.32544 8.58193 5.30368 8.55196 5.28208C8.52417 5.26216 8.49671 5.24224 8.46809 5.22365C8.43745 5.20356 8.40598 5.18515 8.37417 5.16657C8.34437 5.14899 8.31474 5.13124 8.28394 5.11501C8.25163 5.0981 8.21831 5.08286 8.18516 5.06729C8.15336 5.05256 8.12205 5.03733 8.08957 5.02393C8.05542 5.00987 8.02026 4.99815 7.98544 4.98576C7.95213 4.97405 7.91948 4.96149 7.8855 4.95128C7.84967 4.9404 7.81284 4.93219 7.77635 4.92315C7.74186 4.91461 7.70821 4.9049 7.67305 4.89804C7.63505 4.89051 7.59621 4.88599 7.55754 4.88046C7.52288 4.87544 7.48856 4.86874 7.45341 4.8654C7.41072 4.86121 7.36686 4.86054 7.3235 4.85887C7.29203 4.85753 7.26122 4.85418 7.22958 4.85418C7.19175 4.85418 7.15492 4.85803 7.11758 4.85987C7.08075 4.86171 7.04342 4.86188 7.00709 4.86556C6.96708 4.86958 6.92791 4.87678 6.88857 4.88264C6.85492 4.88766 6.82077 4.89151 6.78762 4.89804C6.74878 4.90574 6.71094 4.91646 6.67277 4.926C6.64046 4.9342 6.60765 4.9414 6.57568 4.95094C6.53835 4.96216 6.50201 4.97589 6.46552 4.98911C6.43438 5.00033 6.40257 5.01087 6.37194 5.02326C6.33628 5.038 6.30179 5.05474 6.26681 5.07114C6.23701 5.08521 6.20704 5.09877 6.17791 5.114C6.14376 5.13191 6.11111 5.1515 6.07814 5.17092C6.04984 5.18749 6.02172 5.20407 5.99443 5.22181C5.96229 5.24274 5.93148 5.265 5.90051 5.28744C5.87406 5.30652 5.84795 5.3256 5.8225 5.34586C5.79254 5.36963 5.76357 5.39458 5.73494 5.41986C5.71084 5.44112 5.68673 5.46255 5.66329 5.48498C5.6355 5.5116 5.60872 5.53905 5.58227 5.56701C5.56034 5.59028 5.53891 5.61372 5.51798 5.63783C5.49253 5.66729 5.46792 5.69726 5.44398 5.7279C5.42456 5.75267 5.40581 5.77778 5.3874 5.8034C5.36446 5.83554 5.3422 5.86802 5.32077 5.90133C5.30419 5.92728 5.28829 5.95373 5.27255 5.98052C5.25213 6.01534 5.23254 6.0505 5.21396 6.08649C5.20006 6.11328 5.18734 6.14057 5.17462 6.16785C5.15721 6.20552 5.13996 6.24319 5.12456 6.28203C5.11385 6.30898 5.1043 6.3366 5.09459 6.36406C5.08003 6.40458 5.06597 6.44525 5.05375 6.48694C5.04605 6.51339 5.03985 6.54068 5.03316 6.56763C5.02211 6.61166 5.01106 6.65536 5.00269 6.70039C4.99783 6.7255 4.99499 6.75095 4.99114 6.7764C4.98377 6.82428 4.9764 6.87216 4.97222 6.92104C4.97188 6.92472 4.97121 6.9284 4.97088 6.93209C4.96753 6.97143 4.96686 7.01178 4.96552 7.05195C4.96485 7.07539 4.96201 7.09816 4.96201 7.12176C4.96201 7.19258 4.96619 7.26239 4.97272 7.3317C4.97356 7.34358 4.9754 7.3558 4.97674 7.36802L4.97678 7.36801Z" fill="#252727"/>
<path d="M12.3122 16.7992L12.305 16.8025C11.6448 17.5555 10.7409 18.1599 9.66193 18.5354C9.55646 18.5724 9.44681 18.5913 9.33598 18.5913C8.89099 18.5913 8.49439 18.2896 8.37319 17.8594L7.99987 16.6402C7.99886 16.638 7.99886 16.636 7.99769 16.6338C7.96069 16.4967 7.95433 16.3564 7.97442 16.2225C8.00723 16.0124 8.10751 15.8172 8.25785 15.6657L8.37771 15.5609C8.45154 15.5068 8.53357 15.4623 8.62314 15.4293C9.11784 15.2468 9.51761 14.9789 9.78328 14.6689L9.91587 12.8421C9.93379 12.5826 10.2683 12.4877 10.4201 12.6997C10.6575 13.033 10.7925 13.4043 10.7925 13.7944C10.7925 14.4662 10.3885 15.1033 9.72085 15.5684H9.7175C9.46254 15.7484 9.16773 15.9021 8.84146 16.0221C8.74235 16.0589 8.66635 16.1329 8.62734 16.2225C8.59252 16.2973 8.58415 16.3839 8.60843 16.4683L8.6548 16.6338L8.98275 17.793C9.02812 17.9565 9.17678 18.064 9.33599 18.064C9.37516 18.064 9.41518 18.0577 9.45418 18.0439C10.4108 17.7116 11.222 17.1826 11.8105 16.5181L11.8197 16.5093C12.5062 15.7383 12.9018 14.7943 12.9018 13.7945C12.9018 11.7548 11.2649 10.0209 9.00366 9.41452C8.51316 9.79521 7.89726 10.0221 7.22959 10.0221C6.56616 10.0221 5.95343 9.7984 5.46409 9.42091C3.21559 10.0336 1.59036 11.7623 1.59036 13.7945C1.59036 14.7881 1.9806 15.7277 2.66196 16.4967C2.66163 16.497 2.66112 16.4972 2.66079 16.4973C3.24956 17.1559 4.05129 17.689 5.00284 18.0194C5.04202 18.033 5.08203 18.0394 5.12104 18.0394C5.28024 18.0394 5.4289 17.9317 5.47427 17.7683L5.80223 16.6092L5.8486 16.4436C5.87288 16.3592 5.86451 16.2727 5.82968 16.198C5.79051 16.1083 5.71467 16.0345 5.61557 15.9975C5.29012 15.8778 4.99598 15.7246 4.74149 15.5453H4.73748C4.08995 15.0822 3.69969 14.4548 3.69969 13.7945C3.69969 13.4253 3.82089 13.0721 4.03602 12.7525C4.18585 12.531 4.52853 12.6176 4.54765 12.8833L4.67371 14.6444C4.93939 14.9545 5.33915 15.2223 5.83385 15.4048C5.93011 15.4401 6.01716 15.4902 6.09518 15.5498L6.21204 15.6558C6.35484 15.8051 6.4506 15.9943 6.48257 16.198C6.50249 16.3319 6.4963 16.472 6.4593 16.6092C6.4583 16.6113 6.4583 16.6133 6.45712 16.6155L6.0838 17.8348C5.96243 18.266 5.566 18.5667 5.12101 18.5667C5.01019 18.5667 4.90054 18.5478 4.79506 18.5109C3.72081 18.1369 2.82064 17.5361 2.16102 16.7878C1.79724 17.1738 1.57259 17.6916 1.57259 18.2643C1.57259 19.4551 2.53757 20.4201 3.72835 20.4201H10.7325C11.3285 20.4201 11.8664 20.1785 12.2564 19.7883C12.6467 19.398 12.8882 18.8602 12.8882 18.2643C12.8882 17.7211 12.6869 17.2256 12.3557 16.8469C12.3418 16.8308 12.3271 16.8139 12.3123 16.7992H12.3122Z" fill="#252727"/>
</svg>
