<svg width="51" height="25" viewBox="0 0 51 25" fill="none" xmlns="http://www.w3.org/2000/svg">
<mask id="mask0_2_264" style="mask-type:luminance" maskUnits="userSpaceOnUse" x="17" y="14" width="17" height="9">
<path fill-rule="evenodd" clip-rule="evenodd" d="M17.5 14.9961H33.3399V22.3701H17.5V14.9961Z" fill="white"/>
</mask>
<g mask="url(#mask0_2_264)">
<path fill-rule="evenodd" clip-rule="evenodd" d="M25.4209 16.4961C21.1599 16.4961 18.9999 17.2281 18.9999 18.6731C18.9999 20.1311 21.1599 20.8701 25.4209 20.8701C29.6809 20.8701 31.8399 20.1381 31.8399 18.6931C31.8399 17.2351 29.6809 16.4961 25.4209 16.4961ZM25.4209 22.3701C23.4619 22.3701 17.4999 22.3701 17.4999 18.6731C17.4999 15.3771 22.0209 14.9961 25.4209 14.9961C27.3799 14.9961 33.3399 14.9961 33.3399 18.6931C33.3399 21.9891 28.8199 22.3701 25.4209 22.3701Z" fill="#252727"/>
</g>
<mask id="mask1_2_264" style="mask-type:luminance" maskUnits="userSpaceOnUse" x="20" y="2" width="11" height="12">
<path fill-rule="evenodd" clip-rule="evenodd" d="M20.1099 2.50009H30.7299V13.1187H20.1099V2.50009Z" fill="white"/>
</mask>
<g mask="url(#mask1_2_264)">
<path fill-rule="evenodd" clip-rule="evenodd" d="M25.4209 3.92769C23.2799 3.92769 21.5379 5.66869 21.5379 7.80969C21.5309 9.9437 23.2599 11.6837 25.3919 11.6917L25.4209 12.4057V11.6917C27.5609 11.6917 29.3019 9.94969 29.3019 7.80969C29.3019 5.66869 27.5609 3.92769 25.4209 3.92769ZM25.4209 13.1187H25.3889C22.4669 13.1097 20.0999 10.7267 20.1099 7.80669C20.1099 4.8817 22.4919 2.49969 25.4209 2.49969C28.3489 2.49969 30.7299 4.88169 30.7299 7.80969C30.7299 10.7377 28.3489 13.1187 25.4209 13.1187Z" fill="#252727"/>
</g>
</svg>
