<svg width="51" height="39" viewBox="0 0 51 39" fill="none" xmlns="http://www.w3.org/2000/svg">
<path d="M18.9874 37.7118C18.9874 38.2751 18.5307 38.7318 17.9674 38.7318H1.03544C0.471935 38.7318 0.0154415 38.2751 0.0154415 37.7118C0.0154415 37.1483 0.471935 36.6918 1.03544 36.6918H17.9674C18.2381 36.6918 18.4974 36.7991 18.6886 36.9907C18.8799 37.1819 18.9874 37.4412 18.9874 37.7118ZM1.03544 33.8074H12.5046C13.0678 33.8074 13.5246 33.3506 13.5246 32.7874C13.5246 32.2242 13.0678 31.7674 12.5046 31.7674H1.03544C0.471935 31.7674 0.0154415 32.2242 0.0154415 32.7874C0.0154415 33.3506 0.471935 33.8074 1.03544 33.8074ZM1.03544 28.8887H6.49805C7.06127 28.8887 7.51805 28.4322 7.51805 27.8687C7.51805 27.3055 7.06127 26.8487 6.49805 26.8487H1.03544C0.471935 26.8487 0.0154415 27.3055 0.0154415 27.8687C0.0154415 28.4322 0.471935 28.8887 1.03544 28.8887ZM49.825 36.0742C47.4505 38.4486 39.7379 38.6299 37.472 38.6299H36.9336C32.8874 38.6299 25.4418 38.0633 21.1746 34.3288H21.1749C19.9576 33.2439 18.8664 32.0256 17.9221 30.6965C16.9949 29.3091 15.8008 28.1206 14.4088 27.2002C13.6793 26.8519 12.9021 26.6151 12.1024 26.4976C10.9757 26.2889 9.87143 25.9742 8.80444 25.557C5.04749 23.9647 0.49144 21.1255 0.026611 18.3432V18.2581C-0.426757 12.6652 5.00764 4.94715 9.09368 1.87549C10.8562 0.549561 12.335 0.0961716 13.4853 0.53244C15.5196 1.30881 16.0014 2.97483 16.4263 4.44822C16.8117 5.79127 17.1743 7.05483 18.5625 8.15993C19.9511 9.26473 22.2799 8.8737 24.5296 8.12008C24.81 5.97619 26.0126 4.06172 27.8219 2.87838C28.061 2.73523 28.3481 2.69595 28.6168 2.76994C28.8854 2.84365 29.1123 3.02409 29.2443 3.26942L30.8309 6.21044C30.8309 6.21044 30.8309 6.26138 30.8648 6.28984L30.8933 6.34647C33.8115 14.2799 37.2967 23.0577 38.1522 24.1455C39.3717 24.6464 40.6163 25.0832 41.8811 25.4544C45.7513 26.6841 48.3579 27.5738 49.2928 28.4916C50.2064 29.4823 50.7852 30.7351 50.9475 32.073C51.2292 33.5091 50.8128 34.9935 49.8253 36.0739L49.825 36.0742ZM48.7654 34.0172C47.8191 34.0738 46.2493 34.1475 44.3171 34.1475C39.013 34.1475 30.9944 33.6091 25.6795 30.7759C21.373 28.4639 19.2593 26.1574 16.3407 22.9671C12.5569 18.732 8.41456 14.8319 3.95862 11.3107C2.6893 13.6965 1.90157 16.1329 2.03759 18.0425C2.33215 19.5387 5.63032 22.0092 9.58559 23.6582C10.5359 24.0254 11.5186 24.3023 12.5206 24.4855C13.5654 24.6378 14.5757 24.9693 15.5072 25.4659C17.101 26.5085 18.4724 27.8565 19.5417 29.4327C20.4025 30.6502 21.3986 31.7661 22.5112 32.759C25.2596 35.1673 30.5182 36.5555 36.9383 36.5555C40.565 36.6122 46.8382 36.1306 48.374 34.6006H48.3737C48.5431 34.431 48.6762 34.2284 48.7648 34.0055L48.7654 34.0172Z" fill="#7261E1"/>
</svg>
