<svg width="51" height="25" viewBox="0 0 51 25" fill="none" xmlns="http://www.w3.org/2000/svg">
<g clip-path="url(#clip0_2_250)">
<path d="M20.7198 18.6387L20.3276 18.8676C19.7868 19.1833 19.0905 19 18.775 18.4595L16.2745 14.1757C15.959 13.6352 16.1419 12.9388 16.6826 12.6232L17.0748 12.3942C17.6156 12.0785 18.3118 12.2618 18.6273 12.8023L21.1279 17.0861C21.4436 17.6265 21.2606 18.323 20.7198 18.6387ZM16.9116 13.0155C16.5873 13.2048 16.4774 13.6227 16.6668 13.947L19.1673 18.2307C19.3566 18.555 19.7745 18.6649 20.0988 18.4756L20.491 18.2466C20.8153 18.0573 20.9251 17.6394 20.7358 17.3151L18.2356 13.0317C18.0463 12.7074 17.6284 12.5975 17.3041 12.7868L16.9116 13.0155Z" fill="#252727" stroke="#252727" stroke-width="0.7"/>
<path d="M23.5551 18.992L23.1629 19.2209C22.6221 19.5366 21.9259 19.3533 21.6103 18.8128L17.3587 11.5293C17.0432 10.9887 17.2262 10.2923 17.7668 9.97667L18.159 9.74774C18.6998 9.43205 19.3961 9.6153 19.7116 10.1558L23.9632 17.4394C24.2787 17.9799 24.0958 18.6764 23.5551 18.992ZM17.9959 10.369C17.6715 10.5583 17.5617 10.9762 17.751 11.3005L22.0026 18.584C22.1919 18.9083 22.6098 19.0182 22.9341 18.8289L23.3263 18.5999C23.6506 18.4106 23.7604 17.9928 23.5711 17.6685L19.3195 10.3849C19.1302 10.0606 18.7123 9.95077 18.388 10.1401L17.9959 10.369Z" fill="#252727" stroke="#252727" stroke-width="0.7"/>
<path d="M33.661 11.0845L33.2689 11.3135C32.728 11.6292 32.0318 11.4459 31.7163 10.9054L29.2156 6.6217C28.9001 6.08117 29.083 5.38471 29.6237 5.06911L30.0159 4.84018C30.5567 4.52449 31.2529 4.70774 31.5684 5.24827L34.069 9.53203C34.3846 10.0725 34.2017 10.7689 33.661 11.0845L33.661 11.0845ZM29.8528 5.46135C29.5285 5.65066 29.4187 6.06854 29.608 6.39284L32.1085 10.6766C32.2978 11.0009 32.7157 11.1107 33.04 10.9214L33.4322 10.6925C33.7565 10.5032 33.8663 10.0853 33.677 9.76101L31.1767 5.47762C30.9874 5.15331 30.5695 5.04348 30.2452 5.23279L29.8528 5.46135Z" fill="#252727" stroke="#252727" stroke-width="0.7"/>
<path d="M32.5746 13.727L32.1824 13.956C31.6416 14.2717 30.9454 14.0884 30.6298 13.5479L26.3782 6.26434C26.0627 5.72381 26.2457 5.02735 26.7863 4.71175L27.1785 4.48282C27.7193 4.16713 28.4156 4.35038 28.7311 4.89091L32.9827 12.1745C33.2982 12.715 33.1154 13.4114 32.5746 13.727ZM27.0153 5.10407C26.691 5.29338 26.5812 5.71126 26.7705 6.03556L31.0221 13.3191C31.2114 13.6434 31.6293 13.7532 31.9536 13.5639L32.3458 13.335C32.6701 13.1457 32.7799 12.7278 32.5906 12.4035L28.339 5.11998C28.1497 4.79567 27.7318 4.68584 27.4075 4.87515L27.0153 5.10407Z" fill="#252727" stroke="#252727" stroke-width="0.7"/>
<path d="M29.2727 10.7729L22.2142 14.8931C22.1058 14.9564 21.967 14.9198 21.9038 14.8115L20.9881 13.2429C20.9249 13.1345 20.9615 12.9956 21.0697 12.9325L28.1286 8.81201C28.237 8.74874 28.3758 8.78536 28.439 8.8936L29.3547 10.4623C29.4179 10.5705 29.3813 10.7095 29.2729 10.7728L29.2727 10.7729ZM22.1812 14.3866L28.8479 10.4951L28.1611 9.31856L21.4944 13.2101L22.1812 14.3866Z" fill="#252727" stroke="#252727" stroke-width="0.7"/>
<path d="M33.9784 8.02602L33.1941 8.48385C33.0857 8.54712 32.9469 8.5105 32.8837 8.40226L31.968 6.83361C31.9048 6.72522 31.9414 6.58637 32.0496 6.52319L32.8339 6.06536C33.3748 5.74967 34.071 5.93292 34.3865 6.47345C34.7022 7.0139 34.5193 7.71035 33.9784 8.02604L33.9784 8.02602ZM33.1613 7.97717L33.7495 7.63384C34.0738 7.44453 34.1836 7.02666 33.9943 6.70236C33.805 6.37806 33.3872 6.26822 33.0629 6.45752L32.4747 6.80085L33.1613 7.97717Z" fill="#252727" stroke="#252727" stroke-width="0.7"/>
<path d="M18.2924 17.1824L17.5082 17.6402C16.9674 17.9559 16.2711 17.7726 15.9556 17.2321C15.6401 16.6915 15.823 15.9951 16.3637 15.6795L17.148 15.2217C17.2564 15.1584 17.3953 15.195 17.4585 15.3033L18.3741 16.8719C18.4373 16.9801 18.4008 17.1191 18.2924 17.1824L18.2924 17.1824ZM16.5925 16.0715C16.2682 16.2608 16.1584 16.6787 16.3477 17.003C16.537 17.3273 16.9549 17.4371 17.2792 17.2478L17.8674 16.9045L17.1806 15.728L16.5925 16.0715Z" fill="#252727" stroke="#252727" stroke-width="0.7"/>
</g>
<defs>
<clipPath id="clip0_2_250">
<rect width="24" height="24" fill="white" transform="translate(13.5 0.5)"/>
</clipPath>
</defs>
</svg>
