<svg width="24" height="17" viewBox="0 0 24 17" fill="none" xmlns="http://www.w3.org/2000/svg">
<path d="M23.1534 -0.00212141H21.6545C21.488 -0.00212141 21.3519 0.133817 21.3519 0.300557V1.37113H19.5515C19.3849 1.37113 19.2488 1.50606 19.2488 1.67381V3.51534H16.7723V2.68532C16.7723 2.18745 16.3684 1.78348 15.8697 1.78348H15.2242C14.7265 1.78348 14.3235 2.18643 14.3225 2.68314C14.3215 2.18642 13.9174 1.78348 13.4207 1.78348H12.7751C12.2762 1.78348 11.8723 2.18643 11.8723 2.68532C11.8723 2.18642 11.4695 1.78348 10.9706 1.78348H10.3251C9.82742 1.78348 9.42328 2.18643 9.42328 2.68532C9.42328 2.18642 9.01932 1.78348 8.52161 1.78348H7.87609C7.37702 1.78348 6.97327 2.18643 6.97327 2.68532V3.51534H4.95564V1.67381C4.95564 1.50606 4.82054 1.37113 4.65296 1.37113L2.85279 1.37096V0.30039C2.85279 0.13365 2.71786 -0.00228882 2.55028 -0.00228882L1.05263 -0.00212141C0.885053 -0.00212141 0.749954 0.133817 0.749954 0.300557V8.83384C0.749954 9.00042 0.885053 9.13669 1.05263 9.13669H2.55028C2.71786 9.13669 2.85279 9.00058 2.85279 8.83384V7.76327H4.65313C4.82071 7.76327 4.95581 7.62834 4.95581 7.46059V5.61791H6.97344V6.0294C6.97344 6.03493 6.97411 6.04045 6.97444 6.04598V6.02924C6.97444 6.52711 7.3784 6.93108 7.87611 6.93108H8.52163C8.83485 6.93108 9.11005 6.77187 9.27261 6.52929C9.34426 6.42165 9.50247 6.42165 9.57429 6.52929C9.73668 6.77187 10.0121 6.93108 10.3253 6.93108H10.9708C11.0731 6.93108 11.1712 6.91417 11.2619 6.88253C11.2229 6.74743 11.2018 6.60413 11.2018 6.45647V5.91639C11.2018 5.73491 11.2335 5.55997 11.2914 5.39841C11.5045 4.80561 12.0719 4.38171 12.7363 4.38171H15.8697C16.117 4.38171 16.3512 4.44048 16.559 4.54527C16.6909 4.6119 16.7724 4.74918 16.7724 4.897V5.91636C16.7724 5.72334 16.7123 5.54504 16.609 5.39839C16.4454 5.16636 16.1756 5.01452 15.8697 5.01452H13.5462V5.31351C13.5462 5.57367 13.3353 5.7846 13.0751 5.7846H11.8442C11.8378 5.82779 11.8343 5.87182 11.8343 5.91652V6.4566C11.8343 6.70019 11.9314 6.92066 12.0872 7.08206C12.2508 7.25299 12.4816 7.35846 12.736 7.35846H13.5196C13.523 7.35846 13.5261 7.35946 13.5295 7.35946C13.5355 7.3598 13.541 7.36063 13.5469 7.36113C13.7086 7.3752 13.8362 7.50946 13.8362 7.67469C13.8362 7.82771 13.7277 7.95528 13.5834 7.98474C13.3699 8.06259 11.9434 8.62005 11.537 9.75358C11.4906 9.88282 11.3689 9.96318 11.2391 9.96318C11.2036 9.96318 11.1676 9.95715 11.1323 9.9446C10.9679 9.88567 10.8824 9.70453 10.9413 9.53997C11.2055 8.80334 11.7794 8.27718 12.3079 7.92798C12.0148 7.84227 11.7568 7.67352 11.5644 7.44601C11.3821 7.52184 11.1805 7.5642 10.9708 7.5642H10.3252C9.98891 7.5642 9.67651 7.45555 9.42357 7.27089C9.17045 7.45555 8.85824 7.5642 8.5219 7.5642H7.87638C7.53888 7.5642 7.22766 7.45555 6.97471 7.26989C6.97572 7.77612 7.15083 8.26546 7.46924 8.65688L8.70957 10.1776L8.34662 15.9985C8.32084 16.4128 8.6498 16.7632 9.06516 16.7632L14.6357 16.7629C15.0511 16.7629 15.38 16.4125 15.3543 15.9981L14.9912 10.1734L14.9913 10.1733L16.258 8.66306C16.4562 8.42685 16.6008 8.15362 16.6852 7.8615C16.7431 7.66413 16.7728 7.45754 16.7728 7.2486V6.03339C16.7728 6.03205 16.7729 6.03088 16.7729 6.02954V5.61804H19.2494V7.46073C19.2494 7.62848 19.3855 7.76341 19.5521 7.76341H21.3525V8.83398C21.3525 9.00055 21.4886 9.13682 21.6551 9.13682H23.1538C23.3205 9.13682 23.4556 9.00072 23.4556 8.83398L23.4553 0.300692C23.4553 0.133952 23.3204 -0.00198637 23.1536 -0.00198637L23.1534 -0.00212141Z" fill="#252727"/>
</svg>
